<svg id="visual" viewBox="0 0 1920 1080" width="1920" height="1080" xmlns="http://www.w3.org/2000/svg" xmlns:xlink="http://www.w3.org/1999/xlink" version="1.1"><rect x="0" y="0" width="1920" height="1080" fill="#001220"></rect><path d="M0 640L45.7 649C91.3 658 182.7 676 274.2 696.3C365.7 716.7 457.3 739.3 548.8 747.5C640.3 755.7 731.7 749.3 823 738.3C914.3 727.3 1005.7 711.7 1097 702.7C1188.3 693.7 1279.7 691.3 1371.2 683.7C1462.7 676 1554.3 663 1645.8 657C1737.3 651 1828.7 652 1874.3 652.5L1920 653L1920 1081L1874.3 1081C1828.7 1081 1737.3 1081 1645.8 1081C1554.3 1081 1462.7 1081 1371.2 1081C1279.7 1081 1188.3 1081 1097 1081C1005.7 1081 914.3 1081 823 1081C731.7 1081 640.3 1081 548.8 1081C457.3 1081 365.7 1081 274.2 1081C182.7 1081 91.3 1081 45.7 1081L0 1081Z" fill="#fa6c61"></path><path d="M0 812L45.7 820.2C91.3 828.3 182.7 844.7 274.2 833.8C365.7 823 457.3 785 548.8 782C640.3 779 731.7 811 823 826.8C914.3 842.7 1005.7 842.3 1097 836.8C1188.3 831.3 1279.7 820.7 1371.2 820.7C1462.7 820.7 1554.3 831.3 1645.8 825.3C1737.3 819.3 1828.7 796.7 1874.3 785.3L1920 774L1920 1081L1874.3 1081C1828.7 1081 1737.3 1081 1645.8 1081C1554.3 1081 1462.7 1081 1371.2 1081C1279.7 1081 1188.3 1081 1097 1081C1005.7 1081 914.3 1081 823 1081C731.7 1081 640.3 1081 548.8 1081C457.3 1081 365.7 1081 274.2 1081C182.7 1081 91.3 1081 45.7 1081L0 1081Z" fill="#e3575f"></path><path d="M0 809L45.7 818.5C91.3 828 182.7 847 274.2 858C365.7 869 457.3 872 548.8 877.2C640.3 882.3 731.7 889.7 823 895.5C914.3 901.3 1005.7 905.7 1097 907C1188.3 908.3 1279.7 906.7 1371.2 904.7C1462.7 902.7 1554.3 900.3 1645.8 898.2C1737.3 896 1828.7 894 1874.3 893L1920 892L1920 1081L1874.3 1081C1828.7 1081 1737.3 1081 1645.8 1081C1554.3 1081 1462.7 1081 1371.2 1081C1279.7 1081 1188.3 1081 1097 1081C1005.7 1081 914.3 1081 823 1081C731.7 1081 640.3 1081 548.8 1081C457.3 1081 365.7 1081 274.2 1081C182.7 1081 91.3 1081 45.7 1081L0 1081Z" fill="#cb445c"></path><path d="M0 871L45.7 881C91.3 891 182.7 911 274.2 916.2C365.7 921.3 457.3 911.7 548.8 918.7C640.3 925.7 731.7 949.3 823 950C914.3 950.7 1005.7 928.3 1097 924C1188.3 919.7 1279.7 933.3 1371.2 943.8C1462.7 954.3 1554.3 961.7 1645.8 964.8C1737.3 968 1828.7 967 1874.3 966.5L1920 966L1920 1081L1874.3 1081C1828.7 1081 1737.3 1081 1645.8 1081C1554.3 1081 1462.7 1081 1371.2 1081C1279.7 1081 1188.3 1081 1097 1081C1005.7 1081 914.3 1081 823 1081C731.7 1081 640.3 1081 548.8 1081C457.3 1081 365.7 1081 274.2 1081C182.7 1081 91.3 1081 45.7 1081L0 1081Z" fill="#b13258"></path><path d="M0 1032L45.7 1023.8C91.3 1015.7 182.7 999.3 274.2 992C365.7 984.7 457.3 986.3 548.8 986.2C640.3 986 731.7 984 823 984.5C914.3 985 1005.7 988 1097 993.3C1188.3 998.7 1279.7 1006.3 1371.2 998.7C1462.7 991 1554.3 968 1645.8 970C1737.3 972 1828.7 999 1874.3 1012.5L1920 1026L1920 1081L1874.3 1081C1828.7 1081 1737.3 1081 1645.8 1081C1554.3 1081 1462.7 1081 1371.2 1081C1279.7 1081 1188.3 1081 1097 1081C1005.7 1081 914.3 1081 823 1081C731.7 1081 640.3 1081 548.8 1081C457.3 1081 365.7 1081 274.2 1081C182.7 1081 91.3 1081 45.7 1081L0 1081Z" fill="#972253"></path></svg>